<svg width="240" height="240" viewBox="0 0 240 240" fill="none" xmlns="http://www.w3.org/2000/svg">
<path d="M130 130L146.44 113.56C147.564 112.435 148.898 111.543 150.367 110.934C151.836 110.325 153.41 110.012 155 110.012C156.59 110.012 158.164 110.325 159.633 110.934C161.102 111.543 162.436 112.435 163.56 113.56L180 130M40 80V60C40 54.6957 42.1071 49.6086 45.8579 45.8579C49.6086 42.1071 54.6957 40 60 40H80M40 160V180C40 185.304 42.1071 190.391 45.8579 194.142C49.6086 197.893 54.6957 200 60 200H80M160 40H180C185.304 40 190.391 42.1071 194.142 45.8579C197.893 49.6086 200 54.6957 200 60V80M160 200H180C185.304 200 190.391 197.893 194.142 194.142C197.893 190.391 200 185.304 200 180V160M150 80H150.1M60 130L86.44 103.56C87.5637 102.435 88.8981 101.543 90.3669 100.934C91.8357 100.325 93.4101 100.012 95 100.012C96.5899 100.012 98.1643 100.325 99.6331 100.934C101.102 101.543 102.436 102.435 103.56 103.56L140 140" stroke="white" stroke-width="20" stroke-linecap="round" stroke-linejoin="round"/>
</svg>
