<svg width="1000" height="1000" viewBox="0 0 1000 1000" fill="none" xmlns="http://www.w3.org/2000/svg">
    <g clip-path="url(#clip0_191_2)">
        <rect width="1000" height="1000" fill="#CCCCCC" />
        <line y1="499.5" x2="1000" y2="499.5" stroke="url(#paint0_linear_191_2)" />
        <line x1="146.093" y1="853.2" x2="853.2" y2="146.093" stroke="url(#paint1_linear_191_2)" />
        <line x1="499.5" y1="1000" x2="499.5" y2="0.00012064" stroke="url(#paint2_linear_191_2)" />
        <line x1="853.2" y1="853.907" x2="146.093" y2="146.8" stroke="url(#paint3_linear_191_2)" />
        <rect x="375.5" y="375.5" width="249" height="249" rx="124.5" stroke="#555555" />
        <rect x="425.5" y="425.5" width="149" height="149" rx="74.5" fill="#CCCCCC" />
        <rect x="425.5" y="425.5" width="149" height="149" rx="74.5" stroke="#555555" />
        <path
            d="M520.946 487.838C520.946 485.508 520.02 483.275 518.373 481.627C516.725 479.98 514.492 479.054 512.162 479.054H487.838C485.508 479.054 483.275 479.98 481.627 481.627C479.98 483.275 479.054 485.508 479.054 487.838V506.81L484.618 500.166L484.89 499.86C485.537 499.168 486.312 498.607 487.173 498.205C488.157 497.746 489.23 497.506 490.316 497.506C491.402 497.506 492.475 497.746 493.46 498.205C494.444 498.665 495.314 499.334 496.012 500.166L503.175 508.715L505.751 505.64L506.023 505.337C506.673 504.643 507.45 504.079 508.314 503.677C509.302 503.217 510.379 502.98 511.468 502.982C512.558 502.985 513.634 503.228 514.619 503.692C515.605 504.157 516.476 504.833 517.172 505.672L520.946 510.225V487.838ZM490.316 501.56C489.823 501.56 489.335 501.668 488.888 501.877C488.553 502.033 488.244 502.244 487.978 502.499L487.727 502.769L479.099 513.065C479.308 515.091 480.216 516.99 481.68 518.428C483.323 520.042 485.535 520.946 487.838 520.946H508.129L492.905 502.769C492.588 502.391 492.191 502.085 491.744 501.877C491.297 501.668 490.809 501.56 490.316 501.56ZM511.457 507.037C510.962 507.035 510.473 507.142 510.024 507.351C509.687 507.507 509.378 507.718 509.111 507.974L508.86 508.245L505.817 511.872L513.345 520.859C514.852 520.654 516.288 520.066 517.504 519.135C518.688 518.229 519.608 517.039 520.202 515.686L514.049 508.259C513.733 507.877 513.338 507.57 512.891 507.359C512.443 507.147 511.953 507.038 511.457 507.037ZM525 512.162C525 513.451 524.806 514.699 524.454 515.873C523.675 518.452 522.104 520.719 519.967 522.355C517.828 523.992 515.229 524.916 512.537 524.995H512.513L512.196 525H487.838C484.472 525 481.239 523.68 478.838 521.321C476.586 519.109 475.235 516.149 475.026 513.015L475 512.387V487.838C475 484.433 476.354 481.169 478.761 478.761C481.169 476.354 484.433 475 487.838 475H512.162C515.567 475 518.831 476.354 521.239 478.761C523.646 481.169 525 484.433 525 487.838V512.162Z"
            fill="#555555" />
        <path
            d="M508.354 495.7C510.593 495.7 512.408 493.885 512.408 491.646C512.408 489.407 510.593 487.592 508.354 487.592C506.115 487.592 504.3 489.407 504.3 491.646C504.3 493.885 506.115 495.7 508.354 495.7Z"
            fill="#555555" />
    </g>
    <defs>
        <linearGradient id="paint0_linear_191_2" x1="0" y1="500.5" x2="1000" y2="500.5" gradientUnits="userSpaceOnUse">
            <stop stop-color="#CCCCCC" />
            <stop offset="0.5" stop-color="#555555" />
            <stop offset="1" stop-color="#CCCCCC" />
        </linearGradient>
        <linearGradient id="paint1_linear_191_2" x1="146.8" y1="853.907" x2="853.907" y2="146.8"
            gradientUnits="userSpaceOnUse">
            <stop stop-color="#CCCCCC" />
            <stop offset="0.5" stop-color="#555555" />
            <stop offset="1" stop-color="#CCCCCC" />
        </linearGradient>
        <linearGradient id="paint2_linear_191_2" x1="500.5" y1="1000" x2="500.5" y2="0.00012064"
            gradientUnits="userSpaceOnUse">
            <stop stop-color="#CCCCCC" />
            <stop offset="0.5" stop-color="#555555" />
            <stop offset="1" stop-color="#CCCCCC" />
        </linearGradient>
        <linearGradient id="paint3_linear_191_2" x1="853.907" y1="853.2" x2="146.8" y2="146.093"
            gradientUnits="userSpaceOnUse">
            <stop stop-color="#CCCCCC" />
            <stop offset="0.5" stop-color="#555555" />
            <stop offset="1" stop-color="#CCCCCC" />
        </linearGradient>
        <clipPath id="clip0_191_2">
            <rect width="1000" height="1000" fill="white" />
        </clipPath>
    </defs>
</svg>